<?xml version="1.0" standalone="yes"?>
<svg xmlns="http://www.w3.org/2000/svg" width="1000" height="642">
<!-- <path style="fill:#020202; stroke:none;" d="M0 0L0 642L1000 642L1000 0L0 0z"/> -->
<path style="fill:white; stroke:none" d="M680 83L680 86C673.39 86.078 668.746 89.463 662.911 92.1574C645.759 100.078 629.426 111.624 617 126C624.282 137.662 631.864 147.754 636.665 160.83C638.722 166.433 641.905 171.893 641 178C632.518 164.281 625.781 150.039 614.812 137.961C598.327 119.808 577.162 105.129 553.714 97.5447C545.67 94.9426 537.296 94.7881 529 93.7106C520.606 92.6203 512.58 91.4442 504.039 92.054C501.224 92.2551 498.742 93.5447 495.961 93.8712C491.668 94.3751 487.271 93.5439 483 94.3395C466.891 97.3403 450.744 102.906 435.285 108.526C428.999 110.812 423.644 116.01 417 117L417 119C424.453 120.111 432.264 126.333 438.996 129.753C453.141 136.94 465.466 146.408 478.464 155.196C486.888 160.892 498.151 168.759 503 178C497.029 175.236 489.14 169.876 486 164C478.184 162.807 470.731 154.176 464.086 149.969C450.637 141.454 434.257 133.312 419 128.683C403.238 123.9 388.474 122 372 122C366.478 122 360.459 121.332 355 122.224C321.576 127.687 291.25 149.085 270.36 174.829C264.162 182.467 258.52 189.524 253.184 197.83C250.462 202.067 247.035 206.001 246 211C258.558 215.946 272.292 220.926 283.83 228.007C290.967 232.387 299.536 241.358 308 242C309.662 246.929 314.671 248.967 318.59 251.998C324.803 256.805 331.432 262.609 336 269C330.907 268.076 328.107 265.123 323.961 262.296C319.051 258.949 313.966 255.955 309.117 252.498C298.69 245.067 287.251 239.021 275.83 233.286C259.326 224.999 241.156 219.054 223 216.575C217.994 215.891 213.046 214.107 208 214.019C202.425 213.922 197.388 215.584 192 216.626C177.117 219.503 162.434 225.743 151.34 236.61C141.649 246.101 135.401 257.803 129.25 269.579C125.534 276.693 123.953 284.403 121.47 291.91C118.744 300.151 116.183 308.155 116 317C124.197 317 132.859 316.197 141 317.184C153.089 318.65 164.644 322 177 322L177 325C170.112 325.057 163.787 327.412 157 327.91C131.463 329.782 102.313 333.592 81.4637 350.523C63.5459 365.074 51.9754 388.969 51.1327 412C50.9058 418.201 52.2421 424.82 52.8302 431C53.2689 435.61 52.4514 440.402 53.3395 444.961C57.0296 463.903 66.4422 480.38 80.5756 493.66C98.83 510.814 123.237 517.756 147 522.274C158.312 524.425 170.372 527.152 182 527.946C198.679 529.085 215.386 527.002 232 527L232 523C227.111 521.672 223.982 517.914 220.907 513.997C220.01 512.854 217.116 509.595 219.377 508.306C220.897 507.438 222.916 509.136 224.169 509.789C228.521 512.059 233.098 513.847 237.576 515.834C253.43 522.868 271.033 527.5 288 530.661C295.304 532.021 303.585 531 311 531C318.862 531 327.19 531.785 335 530.87C338.148 530.502 340.908 528.917 344 528.339C353.906 526.49 363.409 524.583 372.985 520.957C381.344 517.791 388.608 512.11 397 509C395.079 513.229 391.449 515.575 387.576 517.999C378.558 523.644 365.729 530.421 355 531C356.103 538.124 364.688 542.688 370.75 545.71C383.293 551.963 394.545 559.56 407.729 564.73C422.435 570.497 437.501 575.016 453 577.737C457.258 578.484 461.702 577.761 466 578.17C502.757 581.668 538.405 573.58 572 559.157C581.934 554.893 591.957 548.802 601.003 542.914C605.876 539.743 610.412 534.519 616 533C614.119 537.034 611.128 539.862 608 543C612.713 549.187 620.825 549.18 628 550.304C633.593 551.18 638.23 552.871 644 553.015C650.778 553.184 657.352 555.308 664 555.698C667.387 555.896 670.64 554.369 674 554.093C680.754 553.54 688.205 554.022 694.83 552.737C701.203 551.5 708.889 549.868 715 547.544C719.206 545.944 722.599 543.108 727 542C729.325 538.038 733.712 535.257 737 532C742.794 526.262 747.952 520.072 752.081 513C761.977 496.052 756 477.093 756 459L753 459L753 449C755.69 451.611 756.286 454.701 757.688 458.13C760.257 464.414 762.674 471.258 763.776 478C764.443 482.079 763.813 485.983 765 490C799.759 481.72 833.26 463.43 858.425 437.884C865.135 431.073 871.354 425.061 876.631 417C885.196 403.917 891.76 390.528 896.875 375.83C899.135 369.335 899.063 362.449 901.039 356C902.701 350.579 903.102 345.667 902.995 340.001C902.957 337.963 903.181 334.55 900.721 333.747C897.967 332.847 894.738 336.258 892.7 337.662C886.724 341.778 880.535 346.975 874 350C878.237 340.92 889.304 335.614 895.787 328C912.259 308.654 928.114 288.717 937.965 265C941.769 255.842 943.905 243.985 941.701 234.09C941.214 231.9 939.787 230.1 939.299 227.91C937.117 218.137 935.342 209.37 930.084 200.424C911.104 168.131 870.338 165.419 837 167.04C832.24 167.272 827.803 168.898 823 169L823 167C827.3 166.949 830.015 165.172 834.039 164.299C836.601 163.743 839.276 164.287 841.83 163.701C850.932 161.614 859.414 158.006 869 158C866.22 151.089 859.598 146.419 854.271 141.485C846.203 134.013 838.874 126.855 830.17 120.165C806.229 101.765 781.119 86.2183 751 80.7377C747.558 80.1115 744.535 78.3953 741 78.0941C729.93 77.151 715.962 76.432 705 78.2238C696.635 79.5909 688.667 82.9044 680 83z"/>
<path style="fill:black; stroke:none;" d="M503 178C504.324 180.687 505.313 181.676 508 183C507.032 180.052 505.859 179.184 503 178M700 281C689.372 281.038 677.588 288.308 668 292.776C664.367 294.469 658.339 298.596 654.283 295.968C648.378 292.141 659.221 286.937 661.615 284.883C668.726 278.784 676.547 273.337 684 267.64C686.411 265.796 689.528 262.192 692.941 262.796C697.922 263.679 702.386 276.692 703 281L708 281C707.51 273.294 702.847 267.279 700.819 260C699.688 255.94 702.994 253.003 702.307 249.17C701.23 243.157 694.244 238.277 691.439 233.004C690.307 230.875 689.305 227.82 686.737 227.027C683.95 226.167 681.648 228.264 679.579 229.775C674.457 233.518 669.634 237.171 665.112 241.651C661.514 245.215 657.256 247.437 653.424 250.634C642.014 260.156 628.959 272.675 620.695 284.961C617.765 289.317 611.858 294.452 611.443 300.05C611.006 305.942 621.213 312.338 624.911 315.942C626.561 317.551 628.378 319.717 630.92 319.553C635.684 319.246 641.484 314.331 645.996 312.59C659.412 307.415 672.735 300.686 685 293.154C690.506 289.773 697.05 287.025 700 281M337 270C337.812 272.782 338.453 273.627 341 275C340.256 272.32 339.471 271.281 337 270M419 342C423.195 341.674 430.815 335.515 426.381 330.894C422.343 326.684 415.236 324.86 410.17 322.248C398.754 316.364 387.801 309.365 376.004 304.263C371.675 302.391 365.703 297.255 360.961 297.357C353.346 297.521 345.816 312.092 348.608 318.853C350.374 323.128 355.967 322.579 356.732 328.005C357.365 332.486 356.527 339.426 355.741 343.91C355.142 347.325 353.27 350.318 355.318 353.702C357.987 358.113 365.298 360.347 369.715 362.407C375.178 364.954 382.888 369.623 389 369.623C402.771 369.623 416.028 354.434 419 342z"/>
<path style="fill:white; stroke:none;" d="M370 330C367.787 333.642 367.593 337.154 366.082 341C365.111 343.472 362.944 345.902 364.097 348.695C365.379 351.799 369.191 352.998 372.015 354.15C374.14 355.018 376.371 356.108 378.71 355.392C383.799 353.834 390.053 340.354 386.088 336.032C383.043 332.715 374.342 330.859 370 330z"/>
<path style="fill:black; stroke:none;" d="M611 464C600.648 463.556 589.344 459.033 579 461.414C571.029 463.25 564.393 466.825 557.13 470.402C554.03 471.929 550.651 474.462 547 474.114C540.275 473.474 537.544 466.079 532.711 462.604C530.625 461.105 526.932 460.439 525.622 463.303C524.114 466.6 527.395 470.298 528.834 473C533.38 481.533 542.429 489.869 545 499C551.888 497.804 550 489.476 550 484C554.862 484 560.172 484.593 564.961 483.66C567.453 483.175 569.599 481.732 572.089 481.263C575.705 480.582 579.404 481.339 583 480.367C590.448 478.354 600.154 473.168 607.96 473.693C612.686 474.011 613.623 479.756 616.013 482.856C619.145 486.92 624.055 488.842 629 489C626.418 484.307 621.896 480.681 619.46 475.83C613.483 463.932 622.011 452.947 628 443C617.429 440.578 611.03 455.407 611 464z"/>
</svg>
